<svg width="480" height="241" viewBox="0 0 480 241" fill="none" xmlns="http://www.w3.org/2000/svg">
<path d="M186.381 120.502C186.381 137.454 198.852 149.96 219.702 149.96C228.496 149.96 236.772 148.573 245.359 144.543L253.17 155.247C242.362 160.975 231.992 164 216.051 164C182.79 164 158.348 147.88 158.348 120.511C158.348 93.1504 182.79 77.0392 216.051 77.0392C231.992 77.0392 241.173 79.3705 252.386 84.2152L244.394 96.5304C235.885 91.9891 228.496 91.0531 219.702 91.0531C198.852 91.0531 186.381 103.55 186.381 120.502Z" fill="#DA1745"/>
<path d="M313.266 150.467C295.559 150.467 285.784 137.077 285.784 120.498C285.784 103.919 295.559 90.5199 313.266 90.5199C330.973 90.5199 340.766 103.919 340.766 120.498C340.766 137.077 330.973 150.467 313.266 150.467ZM313.266 77C281.073 77 257.855 93.1372 257.855 120.498C257.855 147.876 281.073 163.995 313.266 163.995C345.468 163.995 368.695 147.876 368.695 120.498C368.695 93.1372 345.468 77 313.266 77Z" fill="#DA1745"/>
<path d="M452.388 126.799V161.795H479V79.1934H452.388V110.705H411.72V79.1934H385.169V161.795H411.72V126.799H452.388Z" fill="#DA1745"/>
<path d="M142.306 79.1947H114.29V161.796H142.306V79.1947Z" fill="#DA1745"/>
<path d="M33.924 117.007V124.911C47.0923 135.155 60.5103 148.805 70.3714 161.796H101.746C90.8258 148.9 74.0834 133.569 61.7505 125.855C76.2278 125.257 92.3587 119.355 92.3587 102.629C92.3587 81.1963 69.5791 77.253 46.5497 77.253C27.7317 77.253 10.4037 78.1283 0 78.9863V161.796H26.1643V91.4489C30.9872 90.9375 36.1977 90.3482 46.6617 90.3482C60.1314 90.3482 66.9609 94.8202 66.9609 102.629C66.9609 109.311 64.1361 117.301 33.924 117.007Z" fill="#DA1745"/>
</svg>
