<svg xmlns="http://www.w3.org/2000/svg" width="480" height="241" fill="none"><path fill="#DA1745" d="M186.381 120.502c0 16.952 12.471 29.458 33.321 29.458 8.794 0 17.07-1.387 25.657-5.417l7.811 10.704c-10.808 5.728-21.178 8.753-37.119 8.753-33.261 0-57.703-16.12-57.703-43.489 0-27.36 24.442-43.472 57.703-43.472 15.941 0 25.122 2.332 36.335 7.176l-7.992 12.315c-8.509-4.54-15.898-5.477-24.692-5.477-20.85 0-33.321 12.497-33.321 29.449M313.266 150.467c-17.707 0-27.482-13.39-27.482-29.969s9.775-29.978 27.482-29.978 27.5 13.399 27.5 29.978-9.793 29.969-27.5 29.969m0-73.467c-32.193 0-55.411 16.137-55.411 43.498 0 27.378 23.218 43.497 55.411 43.497 32.202 0 55.429-16.119 55.429-43.497 0-27.36-23.227-43.498-55.429-43.498M452.388 126.799v34.996H479V79.193h-26.612v31.512H411.72V79.193h-26.551v82.602h26.551v-34.996zM142.306 79.195H114.29v82.601h28.016zM33.924 117.007v7.904c13.168 10.244 26.586 23.894 36.447 36.885h31.375c-10.92-12.896-27.663-28.227-39.995-35.941 14.477-.598 30.608-6.5 30.608-23.226 0-21.433-22.78-25.376-45.81-25.376-18.817 0-36.145.875-46.549 1.733v82.81h26.164V91.449c4.823-.511 10.034-1.1 20.498-1.1 13.47 0 20.299 4.471 20.299 12.28 0 6.682-2.825 14.672-33.037 14.378"/></svg>